# xmcd CD database file
#
# Track frame offsets:
#	150
#	16680
#	38404
#	75647
#	80938
#	121189
#	138865
#	157109
#	164723
#	201567
#	211990
#	219222
#	239299
#
# Disc length: 3549 seconds
#
# Revision: 0
# Processed by: cddbd v1.5.2PL0 Copyright (c) Steve Scherf et al.
# Submitted via: CDex 1.51
#
DISCID=ac0ddb0d
DTITLE=Maude Maggart - Live
DYEAR=2007
DGENRE=Jazz
TTITLE0=Deep Purple
TTITLE1=I Can't Get Started/Let's Begin
TTITLE2=I'm in the Mood for Love/The Song is You/All The Things You Are
TTITLE3=Spoken
TTITLE4=You Go To My Head/Prelude to a Kiss
TTITLE5=Coffee In The Morning, Kisses In The Night
TTITLE6=I Hadn't Anyone 'Til You
TTITLE7=Spoken
TTITLE8=Deep In A Dream/I Had The Craziest Dream
TTITLE9=I've Heard That Song Before
TTITLE10=Spoken
TTITLE11=My Funny Valentine
TTITLE12=Skylark/The River Is So Blue
EXTD=YEAR: 2007
EXTT0=
EXTT1=
EXTT2=
EXTT3=
EXTT4=
EXTT5=
EXTT6=
EXTT7=
EXTT8=
EXTT9=
EXTT10=
EXTT11=
EXTT12=
PLAYORDER=
